<svg width="130" height="35" viewBox="0 0 130 35" fill="none" xmlns="http://www.w3.org/2000/svg">
<path d="M0.76 0.879997H6.28V29.344H21.16L20.536 34H0.76V0.879997ZM50.7573 17.44C50.7573 22.688 49.6693 26.864 47.4933 29.968C45.3493 33.072 42.2453 34.624 38.1813 34.624C34.1173 34.624 30.9973 33.104 28.8213 30.064C26.6773 26.992 25.6053 22.8 25.6053 17.488C25.6053 12.24 26.6773 8.048 28.8213 4.912C30.9973 1.776 34.1173 0.207997 38.1813 0.207997C42.2453 0.207997 45.3493 1.76 47.4933 4.864C49.6693 7.936 50.7573 12.128 50.7573 17.44ZM45.0453 17.44C45.0453 13.088 44.5013 9.856 43.4133 7.744C42.3253 5.632 40.5813 4.576 38.1813 4.576C35.7813 4.576 34.0373 5.632 32.9493 7.744C31.8613 9.856 31.3173 13.104 31.3173 17.488C31.3173 21.808 31.8613 25.024 32.9493 27.136C34.0693 29.248 35.8133 30.304 38.1813 30.304C40.5813 30.304 42.3253 29.248 43.4133 27.136C44.5013 25.024 45.0453 21.792 45.0453 17.44ZM79.0585 24.448C79.0585 27.872 77.8425 30.32 75.4105 31.792C72.9785 33.264 69.8905 34 66.1465 34H56.4505V0.879997H65.5225C69.0425 0.879997 71.9385 1.536 74.2105 2.848C76.4825 4.128 77.6185 6.272 77.6185 9.28C77.6185 11.2 77.0265 12.784 75.8425 14.032C74.6905 15.248 73.2345 16.048 71.4745 16.432C73.6505 16.816 75.4585 17.632 76.8985 18.88C78.3385 20.096 79.0585 21.952 79.0585 24.448ZM71.9545 9.712C71.9545 8.08 71.4425 6.896 70.4185 6.16C69.4265 5.424 67.9545 5.056 66.0025 5.056H62.0185V14.608H66.3385C68.2265 14.608 69.6345 14.224 70.5625 13.456C71.4905 12.656 71.9545 11.408 71.9545 9.712ZM73.2505 24.448C73.2505 22.368 72.6745 20.912 71.5225 20.08C70.3705 19.216 68.7705 18.784 66.7225 18.784H62.0185V29.68H66.5305C71.0105 29.68 73.2505 27.936 73.2505 24.448ZM108.32 17.44C108.32 22.688 107.232 26.864 105.056 29.968C102.912 33.072 99.8078 34.624 95.7438 34.624C91.6798 34.624 88.5598 33.104 86.3838 30.064C84.2398 26.992 83.1678 22.8 83.1678 17.488C83.1678 12.24 84.2398 8.048 86.3838 4.912C88.5598 1.776 91.6798 0.207997 95.7438 0.207997C99.8078 0.207997 102.912 1.76 105.056 4.864C107.232 7.936 108.32 12.128 108.32 17.44ZM102.608 17.44C102.608 13.088 102.064 9.856 100.976 7.744C99.8878 5.632 98.1438 4.576 95.7438 4.576C93.3438 4.576 91.5998 5.632 90.5118 7.744C89.4238 9.856 88.8798 13.104 88.8798 17.488C88.8798 21.808 89.4238 25.024 90.5118 27.136C91.6318 29.248 93.3758 30.304 95.7438 30.304C98.1438 30.304 99.8878 29.248 100.976 27.136C102.064 25.024 102.608 21.792 102.608 17.44Z" fill="black"/>
<path d="M119.869 29.968C119.869 28.688 120.317 27.6 121.213 26.704C122.109 25.808 123.197 25.36 124.477 25.36C125.789 25.36 126.893 25.808 127.789 26.704C128.685 27.6 129.133 28.688 129.133 29.968C129.133 31.28 128.685 32.384 127.789 33.28C126.893 34.176 125.789 34.624 124.477 34.624C123.197 34.624 122.109 34.176 121.213 33.28C120.317 32.384 119.869 31.28 119.869 29.968Z" fill="url(#paint0_linear_107_689)"/>
<defs>
<linearGradient id="paint0_linear_107_689" x1="67" y1="-7" x2="67" y2="43" gradientUnits="userSpaceOnUse">
<stop stop-color="#B629F8"/>
<stop offset="1" stop-color="#800ADD"/>
</linearGradient>
</defs>
</svg>
